<svg width="21" height="17" viewBox="0 0 21 17" fill="none" xmlns="http://www.w3.org/2000/svg">
<g id="Angels">
<path id="Union" fill-rule="evenodd" clip-rule="evenodd" d="M17.2244 2.46201C17.4207 2.28184 17.7308 2.2868 17.927 2.47324C18.2728 2.80173 18.7163 3.3827 18.9696 4.09974C18.9906 4.15915 19.0103 4.21968 19.0286 4.28122C19.0991 4.20066 19.1966 4.14288 19.3091 4.12084C19.5232 4.0789 19.743 4.17581 19.8541 4.3611C20.103 4.77619 20.1831 5.41758 20.0606 6.09564C20.1298 6.07679 20.204 6.07226 20.2783 6.08406C20.4759 6.11543 20.638 6.25634 20.6924 6.44398C20.8528 6.99743 20.7712 7.81605 20.4123 8.65613C20.2981 8.92341 20.1541 9.19735 19.9769 9.47123C20.0678 9.48914 20.1543 9.53113 20.2256 9.59552C20.3783 9.73327 20.4312 9.94593 20.3594 10.1331C20.2985 10.2919 20.156 10.49 20.0156 10.6654C19.8603 10.8593 19.6586 11.0848 19.4304 11.3108C18.9859 11.751 18.3892 12.245 17.8013 12.4808L17.4016 11.5686C17.5541 11.5074 17.719 11.4139 17.8882 11.2985C17.7475 11.2727 17.6185 11.1899 17.5397 11.0618C17.4048 10.8422 17.4619 10.5617 17.6716 10.4136C18.616 9.74712 19.1766 8.96345 19.4749 8.26542C19.5491 8.09156 19.6062 7.92554 19.6489 7.76994L19.638 7.77828C19.5211 7.86785 19.4004 7.95794 19.2896 8.04063L19.2896 8.04065C19.2281 8.08657 19.1696 8.13021 19.1165 8.1702C18.9566 8.29074 18.8479 8.37672 18.7902 8.43148C18.5937 8.61772 18.2774 8.61403 18.0792 8.42317C17.8811 8.23232 17.8744 7.92479 18.0641 7.73208C18.4349 7.35549 18.6863 6.96638 18.8488 6.59719C18.8305 6.62184 18.8156 6.64267 18.8039 6.66031C18.6589 6.87908 18.3611 6.9463 18.1264 6.81325C17.8917 6.68021 17.8023 6.39351 17.923 6.1609C18.0535 5.90925 18.1237 5.65737 18.1476 5.41028C17.8805 6.21004 17.3887 7.0808 16.6053 7.91803C15.2551 9.36093 15.5009 10.7432 15.709 11.165L14.8173 11.5697C15.3571 11.9133 15.8074 12.3261 16.1724 12.7516C16.6302 13.2852 16.961 13.8454 17.1802 14.3335C17.3828 14.7846 17.5384 15.2818 17.5384 15.6788C17.5384 16.2311 17.0907 16.6788 16.5384 16.6788C15.9861 16.6788 15.5384 16.2311 15.5384 15.6788C15.5384 15.6849 15.5376 15.6813 15.5348 15.6682C15.5243 15.6198 15.4858 15.4424 15.3557 15.1528C15.2072 14.8219 14.9755 14.428 14.6544 14.0537C14.0209 13.3152 13.069 12.6788 11.6923 12.6788H10.3077C8.93091 12.6788 7.97903 13.3152 7.34551 14.0537C7.02444 14.428 6.79277 14.8219 6.64418 15.1528C6.51411 15.4424 6.47562 15.6198 6.46513 15.6682L6.46513 15.6682C6.46229 15.6813 6.4615 15.6849 6.4615 15.6788C6.4615 16.2311 6.01378 16.6788 5.4615 16.6788C4.90921 16.6788 4.4615 16.2311 4.4615 15.6788C4.4615 15.2818 4.61714 14.7846 4.81969 14.3335C5.03889 13.8454 5.36972 13.2852 5.82749 12.7516C6.75167 11.6742 8.22286 10.6788 10.3077 10.6788H11.6923C12.9348 10.6788 13.9593 11.0324 14.78 11.5461C14.4075 10.7513 14.243 8.96573 15.8501 7.24825C16.7242 6.31415 17.1604 5.36206 17.3175 4.5919C17.3963 4.20573 17.4034 3.87309 17.3664 3.6156C17.3282 3.34888 17.2491 3.20253 17.1964 3.14395C17.0158 2.94318 17.0281 2.64217 17.2244 2.46201ZM9.23073 6.34548C9.23073 5.46024 9.98694 4.67881 11 4.67881C12.013 4.67881 12.7692 5.46024 12.7692 6.34548C12.7692 7.23072 12.013 8.01215 11 8.01215C9.98694 8.01215 9.23073 7.23072 9.23073 6.34548ZM11 2.67881C8.95418 2.67881 7.23073 4.2852 7.23073 6.34548C7.23073 8.40576 8.95418 10.0121 11 10.0121C13.0457 10.0121 14.7692 8.40576 14.7692 6.34548C14.7692 4.2852 13.0457 2.67881 11 2.67881ZM3.61339 2.47324C3.80962 2.2868 4.11976 2.28184 4.31603 2.46201C4.5123 2.64217 4.52467 2.94318 4.34406 3.14395C4.29136 3.20253 4.21226 3.34888 4.17401 3.6156C4.13707 3.87309 4.14417 4.20573 4.22293 4.5919C4.38002 5.36206 4.81622 6.31415 5.6903 7.24825C7.32024 8.99011 7.12796 10.802 6.74447 11.5794L5.83146 11.165C6.03952 10.7432 6.28532 9.36093 4.93513 7.91803C4.15169 7.0808 3.65996 6.21004 3.39287 5.41028C3.41674 5.65737 3.48693 5.90925 3.61747 6.1609C3.73813 6.39351 3.64872 6.68021 3.41404 6.81325C3.17935 6.9463 2.88158 6.87908 2.73651 6.66031C2.72481 6.64267 2.70993 6.62185 2.69161 6.59719C2.85412 6.96638 3.10553 7.35549 3.47631 7.73208C3.66605 7.92479 3.65933 8.23232 3.46121 8.42317C3.26308 8.61403 2.94672 8.61772 2.75027 8.43148C2.69251 8.37672 2.5838 8.29074 2.42389 8.1702C2.37092 8.13027 2.31256 8.08671 2.25114 8.04087L2.25083 8.04063L2.25072 8.04055C2.13997 7.95788 2.0193 7.86782 1.90241 7.77828L1.89152 7.76994C1.93423 7.92554 1.99129 8.09156 2.06557 8.26542C2.36382 8.96345 2.92446 9.74712 3.86883 10.4136C4.07857 10.5617 4.13566 10.8422 4.0007 11.0618C3.92197 11.1899 3.79291 11.2727 3.65227 11.2985C3.8214 11.4139 3.98637 11.5074 4.13885 11.5686L3.73919 12.4808C3.1512 12.245 2.55452 11.751 2.11008 11.3108C1.88179 11.0848 1.68012 10.8593 1.52486 10.6654C1.38445 10.49 1.24199 10.2919 1.18103 10.1331C1.10921 9.94593 1.16212 9.73327 1.31479 9.59552C1.38616 9.53113 1.47265 9.48914 1.56356 9.47123C1.38632 9.19735 1.24233 8.92341 1.12814 8.65613C0.769203 7.81605 0.687616 6.99743 0.848058 6.44398C0.902453 6.25634 1.06458 6.11543 1.26217 6.08406C1.33648 6.07226 1.4106 6.07679 1.47987 6.09564C1.35738 5.41758 1.43746 4.77619 1.68633 4.3611C1.79743 4.17581 2.01723 4.0789 2.23129 4.12084C2.34379 4.14288 2.44133 4.20066 2.51182 4.28122C2.5301 4.21968 2.54983 4.15915 2.57082 4.09974C2.8241 3.3827 3.26766 2.80173 3.61339 2.47324Z" fill="#43C4B2"/>
</g>
</svg>
